<?xml version="1.0" encoding="UTF-8" standalone="no"?>
<svg
   xmlns:dc="http://purl.org/dc/elements/1.1/"
   xmlns:cc="http://creativecommons.org/ns#"
   xmlns:rdf="http://www.w3.org/1999/02/22-rdf-syntax-ns#"
   xmlns:svg="http://www.w3.org/2000/svg"
   xmlns="http://www.w3.org/2000/svg"
   xmlns:xlink="http://www.w3.org/1999/xlink"
   id="svg8"
   version="1.1"
   viewBox="0 0 210 297"
   height="2.97em"
   width="2.1em">
  <defs
     id="defs2" />
  <metadata
     id="metadata5">
    <rdf:RDF>
      <cc:Work
         rdf:about="">
        <dc:format>image/svg+xml</dc:format>
        <dc:type
           rdf:resource="http://purl.org/dc/dcmitype/StillImage" />
        <dc:title></dc:title>
      </cc:Work>
    </rdf:RDF>
  </metadata>
  <g
     id="layer1">
    <path
       id="svg-logo-path"
       d="m 143.98744,224.39271 c -7.864,-19.14825 -14.98062,-38.63949 -22.36172,-57.96595 5.41603,-5.20442 13.83229,-6.75585 19.85501,-11.5851 8.28635,-7.31153 14.41492,2.16922 15.7997,9.91175 3.32719,9.31411 7.13647,18.44316 11.06284,27.50124 3.43829,8.23624 -3.19624,14.80486 -8.75105,19.87199 -4.58724,4.76494 -9.63447,9.13906 -15.31149,12.56066 z m -97.483745,-0.70934 c -7.391889,-6.36006 -17.072767,-11.2903 -21.079219,-20.64218 -1.744048,-7.49758 3.942675,-14.13511 6.138115,-21.00016 4.813847,-7.44544 2.249229,-14.5192 -6.742068,-15.86494 -6.815542,-2.71853 -13.682837,-9.03526 -12.257688,-17.04237 -0.323868,-7.91269 6.578145,-13.77548 10.93577,-19.63098 9.757203,-9.82843 22.201345,-16.46986 35.041493,-21.35506 5.829357,-6.08866 5.648513,-15.540027 9.932932,-22.686886 3.903554,-6.49468 3.027608,-17.171183 10.774717,-20.400056 8.876414,-2.330706 18.269598,-0.752876 27.359683,-1.264781 7.60083,-1.877143 14.10836,1.808897 15.80332,9.646381 3.2074,7.39947 2.65357,18.396337 11.94468,21.483403 9.7101,2.429628 20.24658,2.706225 28.97081,8.259239 7.4347,2.96413 12.44951,11.03526 9.48191,18.96 -3.37054,10.22693 -12.13562,17.50464 -20.4398,23.78913 -23.27402,15.08435 -50.43925,23.29475 -77.868906,26.27814 -9.175442,0.65484 -8.834373,10.95269 -12.010329,17.24537 -4.570086,11.40945 -8.366785,23.24302 -13.869687,34.21267 l -0.942268,0.21344 -1.173505,-0.20034 z M 72.069538,168.3828 c 9.796292,-0.62132 19.041782,-4.30271 28.720262,-5.78644 5.69238,-2.15456 13.35237,0.89044 15.39383,-7.43745 -3.32564,-11.0462 -8.87528,-25.93233 -13.56284,-37.24762 -2.18519,-4.13037 -3.821152,-12.51795 -6.626883,-14.06667 -8.113055,19.43179 -14.902249,39.439 -23.347265,58.70796 -8.965008,3.35215 -18.927569,0.53624 -28.055569,-0.97249 -8.171237,-4.47639 0.567484,-14.12558 1.926009,-20.45911 2.528347,-7.89279 8.303192,-14.89657 8.588,-23.39155 -3.311638,-3.34343 -11.817144,5.76146 -16.162275,8.04511 -6.038946,5.04459 -11.982688,11.53244 -13.379547,19.48691 0.691739,8.37625 4.844925,16.27129 13.393554,18.66273 10.428817,4.35625 21.951672,5.06035 33.112724,4.45862 z m 77.017792,-26.55972 c 8.25744,-5.86974 16.0036,-17.26588 10.39037,-27.38761 -5.55514,-7.37452 -14.65669,-12.73584 -24.02581,-12.69105 -4.37147,3.45589 3.56698,12.93137 4.40517,18.43916 3.26324,7.13557 5.04077,15.25186 8.5578,22.00653 z m 25.30648,-21.57254 c 0.2873,-1.08202 0.66239,-0.0101 0,-1e-5 z m 0.26802,-5.59717 c 0.0585,-0.56449 0.18895,0.34869 0,0 z"
       style="fill:#000040;stroke-width:0.13092783;fill-opacity:1" />
  </g>
</svg>
